<svg xmlns="http://www.w3.org/2000/svg" width="48" height="48" viewBox="0 0 48 48">
    <path fill="#019BF2" fill-rule="evenodd" d="M3.717 19.464c-.715 2.968-.991 6.06-.38 9.741.565 3.396 1.565 6.327 2.239 7.941.232.557.591 1.137.87 1.495.799 1.026 2.13.96 2.689.681.61-.305 1.31-1.042 1.057-2.723-.123-.812-.477-2-.676-2.66-.61-2.028-1.423-4.474-1.494-6.215-.094-2.331.81-2.636 1.41-2.77 1.01-.226 1.856.9 2.66 2.312.96 1.686 2.606 4.673 3.948 6.953 1.21 2.06 3.446 4.264 7.037 4.113 3.66-.155 6.357-1.573 7.747-6.04 1.04-3.344 1.75-5.84 2.89-8.398 1.312-2.942 3.061-4.516 4.534-4.036 1.369.446 1.71 1.805 1.727 3.803.014 1.767-.187 3.715-.344 5.145-.056.52-.16 1.564-.117 2.144.082 1.14.568 2.28 1.831 2.461 1.347.194 2.426-.899 2.857-2.22.17-.52.315-1.317.394-1.882.395-2.855.498-4.775.32-7.696-.21-3.415-.866-6.53-2.014-9.226-1.098-2.578-2.862-4.23-5.123-4.376-2.504-.163-5.377 1.526-6.884 4.8-1.389 3.02-2.501 6.118-3.175 7.7-.684 1.604-1.688 2.593-3.234 2.758-1.889.201-3.516-1.192-4.708-3.179-1.04-1.732-3.1-5.03-4.202-6.138-1.035-1.04-2.218-2.343-4.68-2.303-1.946.03-5.538 1.006-7.18 7.815z"/>
</svg>
